{"title":"Public Enemies 2009 DVDrip English Klam","uid":6623679,"size":1961039799,"categoryP":"video","categoryS":"movies","magnet":"?xt=urn:btih:b6f4b91658d2ba1cc2f3fa7c0592c0db37f25003&amp;dn=Public+Enemies+2009+DVDrip+English+Klam&amp;tr=udp%3A%2F%2Ftracker.openbittorrent.com%3A80&amp;tr=udp%3A%2F%2Fopen.demonii.com%3A1337&amp;tr=udp%3A%2F%2Ftracker.coppersurfer.tk%3A6969&amp;tr=udp%3A%2F%2Fexodus.desync.com%3A6969","seeders":0,"leechers":0,"uploader":"Klambake","files":-1,"time":1314093981,"description":"With: Johnny Depp, Christian Bale and Marion Cotillard\n\nDe jaren '30 worden in de Verenigde Staten gekenmerkt door misdaden en gangsters die het land onveilig maken. John Dillinger (Johhny Depp) is een bekende bankrover en moordenaar die steeds uit de handen van de politie glipt. Tijdens haar zoektocht naar Dillinger en zijn collega's Baby Face Nelson en Pretty Boy Floyd krijgt de politie de hulp van een nieuwe instantie, de eerste federale politiemacht: de FBI. Melvin Purvis (Christian Bale) leidt het groepje agenten dat probeert om de gevaarlijke gangsters te arresteren.\n\nThe Feds try to take down notorious American gangsters John Dillinger, Baby Face Nelson and Pretty Boy Floyd during a booming crime wave in the 1930s.\n\n------------------ Dutch Friends ------------------\nYou can find my Friends at: http://www.Film-Test.nl \n------ They got my dutchs subs ---- and more ------\n\nGeneral:\n\nComplete name                    : Public Enemies\\Public Enemies.avi\nFormat                           : AVI\nFormat/Info                      : Audio Video Interleave\nFile size                        : 1.83 GiB\nDuration                         : 2h 14mn\nOverall bit rate                 : 1 950 Kbps\n\nVideo:\n\nFormat                           : MPEG-4 Visual\nFormat profile                   : Simple@L3\nFormat settings, BVOP            : No\nFormat settings, QPel            : No\nFormat settings, GMC             : No warppoints\nFormat settings, Matrix          : Default (H.263)\nCodec ID                         : XVID\nCodec ID/Hint                    : XviD\nDuration                         : 2h 14mn\nBit rate                         : 1 555 Kbps\nWidth                            : 720 pixels\nHeight                           : 304 pixels\nDisplay aspect ratio             : 2.35:1\nFrame rate                       : 25.000 fps\nColor space                      : YUV\nChroma subsampling               : 4:2:0\nBit depth                        : 8 bits\nScan type                        : Progressive\nBits/(Pixel*Frame)               : 0.284\nStream size                      : 1.46 GiB (80%)\nWriting library                  : XviD 1.1.2 (UTC 2006-11-01)\n\nAudio:\n\nFormat                           : AC-3\nFormat/Info                      : Audio Coding 3\nMode extension                   : CM (complete main)\nCodec ID                         : 2000\nDuration                         : 2h 14mn\nBit rate mode                    : Constant\nBit rate                         : 384 Kbps\nChannel(s)                       : 6 channels\nChannel positions                : Front: L C R, Side: L R, LFE\nSampling rate                    : 48.0 KHz\nBit depth                        : 16 bits\nStream size                      : 368 MiB (20%)\nAlignment                        : Aligned on interleaves\nInterleave, duration             : 32 ms (0.80 video frame)\nInterleave, preload duration     : 32 ms\n\n","torrent":{"xt":"urn:btih:b6f4b91658d2ba1cc2f3fa7c0592c0db37f25003","amp;dn":"Public+Enemies+2009+DVDrip+English+Klam","amp;tr":["udp%3A%2F%2Ftracker.openbittorrent.com%3A80","udp%3A%2F%2Fopen.demonii.com%3A1337","udp%3A%2F%2Ftracker.coppersurfer.tk%3A6969","udp%3A%2F%2Fexodus.desync.com%3A6969"],"infoHash":"b6f4b91658d2ba1cc2f3fa7c0592c0db37f25003","infoHashBuffer":{"type":"Buffer","data":[182,244,185,22,88,210,186,28,194,243,250,124,5,146,192,219,55,242,80,3]},"announce":[],"urlList":[]}}